<svg class="svg-icon" style="width: 1em;height: 1em;vertical-align: middle;fill: currentColor;overflow: hidden;" viewBox="0 0 1024 1024" version="1.1" xmlns="http://www.w3.org/2000/svg"><path d="M531.71522 209.152v81.664a10.752 10.752 0 0 1-6.08 9.6 11.072 11.072 0 0 1-11.456-0.96L324.35522 159.36a10.688 10.688 0 0 1 0-17.28L514.18022 2.24a11.072 11.072 0 0 1 11.52-1.024 10.752 10.752 0 0 1 6.016 9.6v90.688c271.936 0.128 492.288 217.088 492.288 484.608a53.76 53.76 0 0 1-27.392 46.72 55.552 55.552 0 0 1-54.72 0 53.76 53.76 0 0 1-27.392-46.72c0-208-171.328-376.768-382.784-376.96z" fill="#666666" /><path d="M50.30722 384a47.104 47.104 0 0 0-35.584 17.024 63.104 63.104 0 0 0-14.72 41.152v523.648c0 32.128 22.528 58.176 50.304 58.176H653.70022c27.776 0 50.304-26.048 50.304-58.24V442.24a63.104 63.104 0 0 0-14.72-41.216A47.104 47.104 0 0 0 653.70022 384H50.30722z m541.248 110.72v412.928H116.48322V494.656h475.008z" fill="#666666" /></svg>